<mxfile host="app.diagrams.net" agent="Mozilla/5.0 (Windows NT 10.0; Win64; x64) AppleWebKit/537.36 (KHTML, like Gecko) Chrome/129.0.0.0 Safari/537.36" version="24.7.17">
  <diagram name="Página-1" id="yPMjA2Gog1Eqy-vjQVwx">
    <mxGraphModel dx="1434" dy="772" grid="1" gridSize="10" guides="1" tooltips="1" connect="1" arrows="1" fold="1" page="1" pageScale="1" pageWidth="827" pageHeight="1169" math="0" shadow="0">
      <root>
        <mxCell id="0" />
        <mxCell id="1" parent="0" />
        <mxCell id="rvRuKa0QMM77_asR6IsW-1" value="Coches" style="rounded=0;whiteSpace=wrap;html=1;fillColor=#1ba1e2;fontColor=#ffffff;strokeColor=#006EAF;" vertex="1" parent="1">
          <mxGeometry x="119" y="290" width="120" height="60" as="geometry" />
        </mxCell>
        <mxCell id="rvRuKa0QMM77_asR6IsW-2" style="edgeStyle=orthogonalEdgeStyle;shape=connector;rounded=0;orthogonalLoop=1;jettySize=auto;html=1;exitX=0;exitY=0.5;exitDx=0;exitDy=0;entryX=1;entryY=0.5;entryDx=0;entryDy=0;strokeColor=default;align=center;verticalAlign=middle;fontFamily=Helvetica;fontSize=11;fontColor=default;labelBackgroundColor=default;endArrow=none;endFill=0;" edge="1" parent="1" source="rvRuKa0QMM77_asR6IsW-3" target="rvRuKa0QMM77_asR6IsW-6">
          <mxGeometry relative="1" as="geometry" />
        </mxCell>
        <mxCell id="rvRuKa0QMM77_asR6IsW-3" value="Cliente" style="rounded=0;whiteSpace=wrap;html=1;fillColor=#008a00;fontColor=#ffffff;strokeColor=#005700;" vertex="1" parent="1">
          <mxGeometry x="569" y="290" width="120" height="60" as="geometry" />
        </mxCell>
        <mxCell id="rvRuKa0QMM77_asR6IsW-4" value="Accidente" style="rounded=0;whiteSpace=wrap;html=1;fillColor=#a20025;fontColor=#ffffff;strokeColor=#6F0000;" vertex="1" parent="1">
          <mxGeometry x="369" y="480" width="120" height="60" as="geometry" />
        </mxCell>
        <mxCell id="rvRuKa0QMM77_asR6IsW-5" style="edgeStyle=orthogonalEdgeStyle;shape=connector;rounded=0;orthogonalLoop=1;jettySize=auto;html=1;exitX=0;exitY=0.5;exitDx=0;exitDy=0;entryX=1;entryY=0.5;entryDx=0;entryDy=0;strokeColor=default;align=center;verticalAlign=middle;fontFamily=Helvetica;fontSize=11;fontColor=default;labelBackgroundColor=default;endArrow=none;endFill=0;" edge="1" parent="1" source="rvRuKa0QMM77_asR6IsW-6" target="rvRuKa0QMM77_asR6IsW-1">
          <mxGeometry relative="1" as="geometry" />
        </mxCell>
        <mxCell id="rvRuKa0QMM77_asR6IsW-6" value="Tiene" style="rhombus;whiteSpace=wrap;html=1;fillColor=#f0a30a;fontColor=#000000;strokeColor=#BD7000;" vertex="1" parent="1">
          <mxGeometry x="389" y="280" width="80" height="80" as="geometry" />
        </mxCell>
        <mxCell id="rvRuKa0QMM77_asR6IsW-7" style="edgeStyle=orthogonalEdgeStyle;shape=connector;rounded=0;orthogonalLoop=1;jettySize=auto;html=1;exitX=0.5;exitY=0;exitDx=0;exitDy=0;entryX=0.5;entryY=1;entryDx=0;entryDy=0;strokeColor=default;align=center;verticalAlign=middle;fontFamily=Helvetica;fontSize=11;fontColor=default;labelBackgroundColor=default;endArrow=none;endFill=0;" edge="1" parent="1" source="rvRuKa0QMM77_asR6IsW-9" target="rvRuKa0QMM77_asR6IsW-1">
          <mxGeometry relative="1" as="geometry" />
        </mxCell>
        <mxCell id="rvRuKa0QMM77_asR6IsW-8" style="edgeStyle=orthogonalEdgeStyle;shape=connector;rounded=0;orthogonalLoop=1;jettySize=auto;html=1;exitX=1;exitY=0.5;exitDx=0;exitDy=0;entryX=0;entryY=0.5;entryDx=0;entryDy=0;strokeColor=default;align=center;verticalAlign=middle;fontFamily=Helvetica;fontSize=11;fontColor=default;labelBackgroundColor=default;endArrow=none;endFill=0;" edge="1" parent="1" source="rvRuKa0QMM77_asR6IsW-9" target="rvRuKa0QMM77_asR6IsW-4">
          <mxGeometry relative="1" as="geometry" />
        </mxCell>
        <mxCell id="rvRuKa0QMM77_asR6IsW-9" value="suceder" style="rhombus;whiteSpace=wrap;html=1;fillColor=#f0a30a;fontColor=#000000;strokeColor=#BD7000;" vertex="1" parent="1">
          <mxGeometry x="139" y="460" width="80" height="80" as="geometry" />
        </mxCell>
        <mxCell id="rvRuKa0QMM77_asR6IsW-10" style="edgeStyle=orthogonalEdgeStyle;shape=connector;rounded=0;orthogonalLoop=1;jettySize=auto;html=1;entryX=1;entryY=0.25;entryDx=0;entryDy=0;strokeColor=default;align=center;verticalAlign=middle;fontFamily=Helvetica;fontSize=11;fontColor=default;labelBackgroundColor=default;endArrow=none;endFill=0;" edge="1" parent="1" source="rvRuKa0QMM77_asR6IsW-11" target="rvRuKa0QMM77_asR6IsW-3">
          <mxGeometry relative="1" as="geometry" />
        </mxCell>
        <mxCell id="rvRuKa0QMM77_asR6IsW-11" value="&lt;u&gt;DNI&lt;/u&gt;" style="ellipse;whiteSpace=wrap;html=1;" vertex="1" parent="1">
          <mxGeometry x="749" y="250" width="70" height="40" as="geometry" />
        </mxCell>
        <mxCell id="rvRuKa0QMM77_asR6IsW-12" style="edgeStyle=orthogonalEdgeStyle;rounded=0;orthogonalLoop=1;jettySize=auto;html=1;exitX=0;exitY=0.5;exitDx=0;exitDy=0;entryX=1;entryY=0.5;entryDx=0;entryDy=0;endArrow=none;endFill=0;" edge="1" parent="1" source="rvRuKa0QMM77_asR6IsW-13" target="rvRuKa0QMM77_asR6IsW-3">
          <mxGeometry relative="1" as="geometry" />
        </mxCell>
        <mxCell id="rvRuKa0QMM77_asR6IsW-13" value="Nombre_titular" style="ellipse;whiteSpace=wrap;html=1;" vertex="1" parent="1">
          <mxGeometry x="729" y="300" width="90" height="40" as="geometry" />
        </mxCell>
        <mxCell id="rvRuKa0QMM77_asR6IsW-14" style="edgeStyle=orthogonalEdgeStyle;shape=connector;rounded=0;orthogonalLoop=1;jettySize=auto;html=1;exitX=0;exitY=0.5;exitDx=0;exitDy=0;entryX=1;entryY=0.75;entryDx=0;entryDy=0;strokeColor=default;align=center;verticalAlign=middle;fontFamily=Helvetica;fontSize=11;fontColor=default;labelBackgroundColor=default;endArrow=none;endFill=0;" edge="1" parent="1" source="rvRuKa0QMM77_asR6IsW-15" target="rvRuKa0QMM77_asR6IsW-3">
          <mxGeometry relative="1" as="geometry" />
        </mxCell>
        <mxCell id="rvRuKa0QMM77_asR6IsW-15" value="Contacto" style="ellipse;whiteSpace=wrap;html=1;" vertex="1" parent="1">
          <mxGeometry x="749" y="350" width="70" height="40" as="geometry" />
        </mxCell>
        <mxCell id="rvRuKa0QMM77_asR6IsW-16" style="edgeStyle=orthogonalEdgeStyle;shape=connector;rounded=0;orthogonalLoop=1;jettySize=auto;html=1;exitX=0.5;exitY=1;exitDx=0;exitDy=0;entryX=0.25;entryY=0;entryDx=0;entryDy=0;strokeColor=default;align=center;verticalAlign=middle;fontFamily=Helvetica;fontSize=11;fontColor=default;labelBackgroundColor=default;endArrow=none;endFill=0;" edge="1" parent="1" source="rvRuKa0QMM77_asR6IsW-17" target="rvRuKa0QMM77_asR6IsW-1">
          <mxGeometry relative="1" as="geometry" />
        </mxCell>
        <mxCell id="rvRuKa0QMM77_asR6IsW-17" value="Color" style="ellipse;whiteSpace=wrap;html=1;" vertex="1" parent="1">
          <mxGeometry x="119" y="230" width="70" height="40" as="geometry" />
        </mxCell>
        <mxCell id="rvRuKa0QMM77_asR6IsW-18" style="edgeStyle=orthogonalEdgeStyle;shape=connector;rounded=0;orthogonalLoop=1;jettySize=auto;html=1;exitX=0.5;exitY=1;exitDx=0;exitDy=0;entryX=1;entryY=0;entryDx=0;entryDy=0;strokeColor=default;align=center;verticalAlign=middle;fontFamily=Helvetica;fontSize=11;fontColor=default;labelBackgroundColor=default;endArrow=none;endFill=0;" edge="1" parent="1" source="rvRuKa0QMM77_asR6IsW-19" target="rvRuKa0QMM77_asR6IsW-1">
          <mxGeometry relative="1" as="geometry" />
        </mxCell>
        <mxCell id="rvRuKa0QMM77_asR6IsW-19" value="Modelo" style="ellipse;whiteSpace=wrap;html=1;" vertex="1" parent="1">
          <mxGeometry x="219" y="230" width="70" height="40" as="geometry" />
        </mxCell>
        <mxCell id="rvRuKa0QMM77_asR6IsW-20" style="edgeStyle=orthogonalEdgeStyle;shape=connector;rounded=0;orthogonalLoop=1;jettySize=auto;html=1;exitX=1;exitY=0.5;exitDx=0;exitDy=0;entryX=0;entryY=0.5;entryDx=0;entryDy=0;strokeColor=default;align=center;verticalAlign=middle;fontFamily=Helvetica;fontSize=11;fontColor=default;labelBackgroundColor=default;endArrow=none;endFill=0;" edge="1" parent="1" source="rvRuKa0QMM77_asR6IsW-21" target="rvRuKa0QMM77_asR6IsW-1">
          <mxGeometry relative="1" as="geometry" />
        </mxCell>
        <mxCell id="rvRuKa0QMM77_asR6IsW-21" value="&lt;u&gt;Matrícula&lt;/u&gt;" style="ellipse;whiteSpace=wrap;html=1;" vertex="1" parent="1">
          <mxGeometry x="9" y="290" width="70" height="40" as="geometry" />
        </mxCell>
        <mxCell id="rvRuKa0QMM77_asR6IsW-22" value="(1,N)" style="text;strokeColor=none;align=center;fillColor=none;html=1;verticalAlign=middle;whiteSpace=wrap;rounded=0;fontFamily=Helvetica;fontSize=11;fontColor=default;labelBackgroundColor=default;" vertex="1" parent="1">
          <mxGeometry x="249" y="295" width="60" height="30" as="geometry" />
        </mxCell>
        <mxCell id="rvRuKa0QMM77_asR6IsW-23" value="(1,1)" style="text;strokeColor=none;align=center;fillColor=none;html=1;verticalAlign=middle;whiteSpace=wrap;rounded=0;fontFamily=Helvetica;fontSize=11;fontColor=default;labelBackgroundColor=default;" vertex="1" parent="1">
          <mxGeometry x="519" y="295" width="60" height="30" as="geometry" />
        </mxCell>
        <mxCell id="rvRuKa0QMM77_asR6IsW-24" value="1:N" style="text;strokeColor=none;align=center;fillColor=none;html=1;verticalAlign=middle;whiteSpace=wrap;rounded=0;fontFamily=Helvetica;fontSize=11;fontColor=default;labelBackgroundColor=default;" vertex="1" parent="1">
          <mxGeometry x="399" y="255" width="60" height="30" as="geometry" />
        </mxCell>
        <mxCell id="rvRuKa0QMM77_asR6IsW-25" style="edgeStyle=orthogonalEdgeStyle;shape=connector;rounded=0;orthogonalLoop=1;jettySize=auto;html=1;exitX=0;exitY=0.5;exitDx=0;exitDy=0;entryX=1;entryY=0.25;entryDx=0;entryDy=0;strokeColor=default;align=center;verticalAlign=middle;fontFamily=Helvetica;fontSize=11;fontColor=default;labelBackgroundColor=default;endArrow=none;endFill=0;" edge="1" parent="1" source="rvRuKa0QMM77_asR6IsW-26" target="rvRuKa0QMM77_asR6IsW-4">
          <mxGeometry relative="1" as="geometry" />
        </mxCell>
        <mxCell id="rvRuKa0QMM77_asR6IsW-26" value="Fecha" style="ellipse;whiteSpace=wrap;html=1;" vertex="1" parent="1">
          <mxGeometry x="539" y="480" width="70" height="40" as="geometry" />
        </mxCell>
        <mxCell id="rvRuKa0QMM77_asR6IsW-27" style="edgeStyle=orthogonalEdgeStyle;shape=connector;rounded=0;orthogonalLoop=1;jettySize=auto;html=1;exitX=0.5;exitY=0;exitDx=0;exitDy=0;entryX=1;entryY=1;entryDx=0;entryDy=0;strokeColor=default;align=center;verticalAlign=middle;fontFamily=Helvetica;fontSize=11;fontColor=default;labelBackgroundColor=default;endArrow=none;endFill=0;" edge="1" parent="1" source="rvRuKa0QMM77_asR6IsW-28" target="rvRuKa0QMM77_asR6IsW-4">
          <mxGeometry relative="1" as="geometry" />
        </mxCell>
        <mxCell id="rvRuKa0QMM77_asR6IsW-28" value="Lugar" style="ellipse;whiteSpace=wrap;html=1;" vertex="1" parent="1">
          <mxGeometry x="479" y="560" width="70" height="40" as="geometry" />
        </mxCell>
        <mxCell id="rvRuKa0QMM77_asR6IsW-29" value="&lt;u&gt;ID&lt;/u&gt;" style="ellipse;whiteSpace=wrap;html=1;" vertex="1" parent="1">
          <mxGeometry x="378" y="570" width="70" height="40" as="geometry" />
        </mxCell>
        <mxCell id="rvRuKa0QMM77_asR6IsW-30" style="edgeStyle=orthogonalEdgeStyle;shape=connector;rounded=0;orthogonalLoop=1;jettySize=auto;html=1;exitX=0.5;exitY=0;exitDx=0;exitDy=0;entryX=0.408;entryY=1.05;entryDx=0;entryDy=0;entryPerimeter=0;strokeColor=default;align=center;verticalAlign=middle;fontFamily=Helvetica;fontSize=11;fontColor=default;labelBackgroundColor=default;endArrow=none;endFill=0;" edge="1" parent="1" source="rvRuKa0QMM77_asR6IsW-29" target="rvRuKa0QMM77_asR6IsW-4">
          <mxGeometry relative="1" as="geometry" />
        </mxCell>
        <mxCell id="rvRuKa0QMM77_asR6IsW-31" value="(0,N)" style="text;strokeColor=none;align=center;fillColor=none;html=1;verticalAlign=middle;whiteSpace=wrap;rounded=0;fontFamily=Helvetica;fontSize=11;fontColor=default;labelBackgroundColor=default;" vertex="1" parent="1">
          <mxGeometry x="318" y="480" width="60" height="30" as="geometry" />
        </mxCell>
        <mxCell id="rvRuKa0QMM77_asR6IsW-32" value="(1,N)" style="text;strokeColor=none;align=center;fillColor=none;html=1;verticalAlign=middle;whiteSpace=wrap;rounded=0;fontFamily=Helvetica;fontSize=11;fontColor=default;labelBackgroundColor=default;" vertex="1" parent="1">
          <mxGeometry x="189" y="360" width="60" height="30" as="geometry" />
        </mxCell>
        <mxCell id="rvRuKa0QMM77_asR6IsW-33" value="N:N" style="text;strokeColor=none;align=center;fillColor=none;html=1;verticalAlign=middle;whiteSpace=wrap;rounded=0;fontFamily=Helvetica;fontSize=11;fontColor=default;labelBackgroundColor=default;" vertex="1" parent="1">
          <mxGeometry x="149" y="540" width="60" height="30" as="geometry" />
        </mxCell>
        <mxCell id="rvRuKa0QMM77_asR6IsW-37" style="edgeStyle=orthogonalEdgeStyle;shape=connector;rounded=0;orthogonalLoop=1;jettySize=auto;html=1;exitX=1;exitY=0.5;exitDx=0;exitDy=0;entryX=0;entryY=0.5;entryDx=0;entryDy=0;strokeColor=default;align=center;verticalAlign=middle;fontFamily=Helvetica;fontSize=11;fontColor=default;labelBackgroundColor=default;endArrow=none;endFill=0;" edge="1" parent="1" source="rvRuKa0QMM77_asR6IsW-34" target="rvRuKa0QMM77_asR6IsW-9">
          <mxGeometry relative="1" as="geometry" />
        </mxCell>
        <mxCell id="rvRuKa0QMM77_asR6IsW-34" value="Daños según ID Accidente" style="ellipse;whiteSpace=wrap;html=1;" vertex="1" parent="1">
          <mxGeometry x="20" y="475" width="70" height="70" as="geometry" />
        </mxCell>
      </root>
    </mxGraphModel>
  </diagram>
</mxfile>
